<mxfile host="app.diagrams.net" modified="2023-12-29T05:50:21.159Z" agent="Mozilla/5.0 (Windows NT 10.0; Win64; x64) AppleWebKit/537.36 (KHTML, like Gecko) Chrome/120.0.0.0 Safari/537.36" etag="g0jqc0Ent4gUm6XcPn0a" version="21.5.2" type="device">
  <diagram id="sqOqnguZBWlhrr2xxWvK" name="PÃ¡gina-1">
    <mxGraphModel dx="989" dy="514" grid="1" gridSize="10" guides="1" tooltips="1" connect="1" arrows="1" fold="1" page="1" pageScale="1" pageWidth="827" pageHeight="1169" math="0" shadow="0">
      <root>
        <mxCell id="0" />
        <mxCell id="1" parent="0" />
        <mxCell id="ajo--u_d2EZGW9KUS3vG-1" value="Jugador" style="shape=umlActor;verticalLabelPosition=bottom;verticalAlign=top;html=1;outlineConnect=0;" parent="1" vertex="1">
          <mxGeometry x="180" y="270" width="80" height="120" as="geometry" />
        </mxCell>
        <mxCell id="ajo--u_d2EZGW9KUS3vG-2" value="Realizar Movimiento" style="ellipse;whiteSpace=wrap;html=1;" parent="1" vertex="1">
          <mxGeometry x="353" y="90" width="120" height="80" as="geometry" />
        </mxCell>
        <mxCell id="ajo--u_d2EZGW9KUS3vG-3" value="Mostrar Estado Actual" style="ellipse;whiteSpace=wrap;html=1;" parent="1" vertex="1">
          <mxGeometry x="440" y="190" width="120" height="80" as="geometry" />
        </mxCell>
        <mxCell id="ajo--u_d2EZGW9KUS3vG-4" value="Verificar Fin del juego" style="ellipse;whiteSpace=wrap;html=1;" parent="1" vertex="1">
          <mxGeometry x="510" y="290" width="120" height="80" as="geometry" />
        </mxCell>
        <mxCell id="ajo--u_d2EZGW9KUS3vG-10" value="" style="endArrow=classic;html=1;rounded=0;entryX=0;entryY=0.625;entryDx=0;entryDy=0;entryPerimeter=0;" parent="1" edge="1">
          <mxGeometry width="50" height="50" relative="1" as="geometry">
            <mxPoint x="250" y="250" as="sourcePoint" />
            <mxPoint x="373" y="180" as="targetPoint" />
          </mxGeometry>
        </mxCell>
        <mxCell id="ajo--u_d2EZGW9KUS3vG-11" value="" style="endArrow=classic;html=1;rounded=0;" parent="1" edge="1">
          <mxGeometry width="50" height="50" relative="1" as="geometry">
            <mxPoint x="280" y="280" as="sourcePoint" />
            <mxPoint x="425" y="250" as="targetPoint" />
          </mxGeometry>
        </mxCell>
        <mxCell id="ajo--u_d2EZGW9KUS3vG-12" value="" style="endArrow=classic;html=1;rounded=0;" parent="1" edge="1">
          <mxGeometry width="50" height="50" relative="1" as="geometry">
            <mxPoint x="280" y="330" as="sourcePoint" />
            <mxPoint x="500" y="330" as="targetPoint" />
          </mxGeometry>
        </mxCell>
        <mxCell id="Gua3t_Wp1VU3yuyCj_Az-7" value="Verificar Estado Peligroso" style="ellipse;whiteSpace=wrap;html=1;" vertex="1" parent="1">
          <mxGeometry x="440" y="400" width="120" height="80" as="geometry" />
        </mxCell>
        <mxCell id="Gua3t_Wp1VU3yuyCj_Az-8" value="Notificar Fin del juego" style="ellipse;whiteSpace=wrap;html=1;" vertex="1" parent="1">
          <mxGeometry x="354" y="490" width="120" height="80" as="geometry" />
        </mxCell>
        <mxCell id="Gua3t_Wp1VU3yuyCj_Az-9" value="" style="endArrow=classic;html=1;rounded=0;" edge="1" parent="1">
          <mxGeometry width="50" height="50" relative="1" as="geometry">
            <mxPoint x="280" y="390" as="sourcePoint" />
            <mxPoint x="420" y="430" as="targetPoint" />
          </mxGeometry>
        </mxCell>
        <mxCell id="Gua3t_Wp1VU3yuyCj_Az-10" value="" style="endArrow=classic;html=1;rounded=0;" edge="1" parent="1">
          <mxGeometry width="50" height="50" relative="1" as="geometry">
            <mxPoint x="250" y="440" as="sourcePoint" />
            <mxPoint x="350" y="500" as="targetPoint" />
          </mxGeometry>
        </mxCell>
      </root>
    </mxGraphModel>
  </diagram>
</mxfile>
